<?xml version="1.0" encoding="UTF-8"?>
<!DOCTYPE svg PUBLIC "-//W3C//DTD SVG 1.1//EN" "http://www.w3.org/Graphics/SVG/1.1/DTD/svg11.dtd">
<svg xmlns="http://www.w3.org/2000/svg" version="1.1" width="512px" height="512px" style="shape-rendering:geometricPrecision; text-rendering:geometricPrecision; image-rendering:optimizeQuality; fill-rule:evenodd; clip-rule:evenodd" xmlns:xlink="http://www.w3.org/1999/xlink">
<g><path style="opacity:0.99" fill="#06ac59" d="M 188.5,-0.5 C 264.167,-0.5 339.833,-0.5 415.5,-0.5C 419.216,2.05182 422.049,5.38515 424,9.5C 424.5,46.4985 424.667,83.4985 424.5,120.5C 364.166,120.333 303.832,120.5 243.5,121C 216.86,126.061 199.694,141.561 192,167.5C 190.86,194.3 190.36,221.133 190.5,248C 190.36,274.867 190.86,301.7 192,328.5C 199.702,354.441 216.869,369.941 243.5,375C 303.832,375.5 364.166,375.667 424.5,375.5C 424.667,407.502 424.5,439.502 424,471.5C 422.629,474.88 420.462,477.713 417.5,480C 328.89,481.659 240.223,481.992 151.5,481C 164,465.833 176.5,450.667 189,435.5C 199.524,417.737 198.857,400.404 187,383.5C 179.779,375.806 170.945,371.139 160.5,369.5C 160.667,349.497 160.5,329.497 160,309.5C 157.433,288.94 146.266,275.773 126.5,270C 105.503,269.5 84.5026,269.333 63.5,269.5C 63.5,221.167 63.5,172.833 63.5,124.5C 101.501,124.667 139.501,124.5 177.5,124C 182.573,122.594 186.073,119.428 188,114.5C 188.5,76.1681 188.667,37.8348 188.5,-0.5 Z"/></g>
<g><path style="opacity:0.958" fill="#ccc" d="M 158.5,7.5 C 159.498,36.6619 159.831,65.9953 159.5,95.5C 130.492,95.8332 101.492,95.4998 72.5,94.5C 101.188,65.4791 129.854,36.4791 158.5,7.5 Z"/></g>
<g><path style="opacity:0.979" fill="#ce0c0f" d="M 511.5,173.5 C 511.5,223.167 511.5,272.833 511.5,322.5C 507.929,335.234 499.595,343.067 486.5,346C 404.79,346.989 323.123,346.655 241.5,345C 230.167,340.999 223,333.166 220,321.5C 219.333,272.833 219.333,224.167 220,175.5C 222.554,163.28 229.721,155.113 241.5,151C 322.79,149.345 404.123,149.011 485.5,150C 498.638,153.042 507.305,160.875 511.5,173.5 Z M 262.5,198.5 C 272.506,198.334 282.506,198.5 292.5,199C 313.624,205.082 322.124,218.916 318,240.5C 313.661,251.935 305.494,259.102 293.5,262C 287.175,262.5 280.842,262.666 274.5,262.5C 274.666,271.839 274.5,281.173 274,290.5C 270.521,297.651 265.354,299.151 258.5,295C 257.54,293.581 256.707,292.081 256,290.5C 255.333,262.167 255.333,233.833 256,205.5C 257.018,201.985 259.185,199.652 262.5,198.5 Z M 342.5,198.5 C 352.839,198.334 363.172,198.5 373.5,199C 392.705,203.207 404.205,215.04 408,234.5C 412.725,256.459 406.892,274.959 390.5,290C 385.058,293.704 379.058,296.037 372.5,297C 362.5,297.667 352.5,297.667 342.5,297C 339.333,295.833 337.167,293.667 336,290.5C 335.333,262.167 335.333,233.833 336,205.5C 337.018,201.985 339.185,199.652 342.5,198.5 Z M 431.5,198.5 C 444.171,198.333 456.838,198.5 469.5,199C 474.732,201.633 476.565,205.799 475,211.5C 473.833,214 472,215.833 469.5,217C 460.84,217.5 452.173,217.666 443.5,217.5C 443.5,224.167 443.5,230.833 443.5,237.5C 450.841,237.334 458.174,237.5 465.5,238C 473.431,241.025 475.264,246.192 471,253.5C 470.097,254.701 468.931,255.535 467.5,256C 459.507,256.5 451.507,256.666 443.5,256.5C 443.667,267.838 443.5,279.172 443,290.5C 439.521,297.651 434.354,299.151 427.5,295C 426.54,293.581 425.707,292.081 425,290.5C 424.333,262.167 424.333,233.833 425,205.5C 426.018,201.985 428.185,199.652 431.5,198.5 Z"/></g>
<g><path style="opacity:0.924" fill="#ce0c0f" d="M 274.5,217.5 C 280.925,217.13 287.258,217.63 293.5,219C 300.435,223.55 302.268,229.717 299,237.5C 297.062,240.106 294.562,241.939 291.5,243C 285.843,243.499 280.176,243.666 274.5,243.5C 274.5,234.833 274.5,226.167 274.5,217.5 Z"/></g>
<g><path style="opacity:0.95" fill="#ce0c0f" d="M 354.5,217.5 C 378.27,213.874 390.27,224.041 390.5,248C 389.983,271.682 377.983,281.849 354.5,278.5C 354.5,258.167 354.5,237.833 354.5,217.5 Z"/></g>
<g><path style="opacity:0.98" fill="#ce0c0f" d="M 88.5,511.5 C 85.1667,511.5 81.8333,511.5 78.5,511.5C 76.6455,510.31 74.8121,508.977 73,507.5C 48.636,476.978 24.136,446.645 -0.5,416.5C -0.5,412.833 -0.5,409.167 -0.5,405.5C 1.79717,401.713 5.13051,399.213 9.5,398C 18.1603,397.5 26.8269,397.334 35.5,397.5C 35.0307,366.784 35.5307,336.117 37,305.5C 38.587,302.244 41.087,300.077 44.5,299C 70.5,298.333 96.5,298.333 122.5,299C 125.937,300.105 128.437,302.272 130,305.5C 131.461,336.125 131.961,366.792 131.5,397.5C 140.173,397.334 148.84,397.5 157.5,398C 166.58,400.991 169.747,407.157 167,416.5C 144,445.167 121,473.833 98,502.5C 95.2432,506.101 92.0765,509.101 88.5,511.5 Z"/></g>
</svg>
